<?xml version="1.0" encoding="UTF-8" standalone="no"?>
<!-- Created with Inkscape (http://www.inkscape.org/) -->

<svg
   width="640"
   height="640"
   viewBox="0 0 169.33333 169.33333"
   version="1.1"
   id="svg1"
   xml:space="preserve"
   inkscape:version="1.3.2 (091e20e, 2023-11-25)"
   sodipodi:docname="logo.svg"
   inkscape:export-filename="logo.png"
   inkscape:export-xdpi="96"
   inkscape:export-ydpi="96"
   xmlns:inkscape="http://www.inkscape.org/namespaces/inkscape"
   xmlns:sodipodi="http://sodipodi.sourceforge.net/DTD/sodipodi-0.dtd"
   xmlns="http://www.w3.org/2000/svg"
   xmlns:svg="http://www.w3.org/2000/svg"><sodipodi:namedview
     id="namedview1"
     pagecolor="#ffffff"
     bordercolor="#000000"
     borderopacity="0.25"
     inkscape:showpageshadow="2"
     inkscape:pageopacity="0.0"
     inkscape:pagecheckerboard="0"
     inkscape:deskcolor="#d1d1d1"
     inkscape:document-units="px"
     inkscape:zoom="0.35095014"
     inkscape:cx="698.10486"
     inkscape:cy="213.70557"
     inkscape:window-width="2560"
     inkscape:window-height="1387"
     inkscape:window-x="1800"
     inkscape:window-y="25"
     inkscape:window-maximized="1"
     inkscape:current-layer="svg1" /><defs
     id="defs1" /><path
     id="rect2-5"
     style="fill:#753d82;stroke-width:0;stroke-linecap:round;stroke-linejoin:round"
     d="M 8.7646481e-7,8.7646487e-7 H 169.33333 V 169.33333 H 8.7646481e-7 Z" /><path
     fill-rule="evenodd"
     clip-rule="evenodd"
     d="m 52.916646,40.55231 v 4.032203 c -4.867722,0.696383 -9.684785,1.550482 -14.445827,2.557074 -1.851001,0.391348 -3.063804,2.173205 -2.748844,4.038741 2.401005,14.222589 14.250246,25.230855 28.874061,26.339048 3.695465,3.017896 8.087548,5.222051 12.899672,6.333537 -0.465196,5.494866 -2.328803,10.586155 -5.234281,14.924851 H 68.79047 c -4.870873,0 -8.819445,3.948756 -8.819445,8.819446 v 12.34722 H 56.44273 c -5.84501,0 -10.583333,4.73851 -10.583333,10.58333 0,1.94828 1.579457,3.52778 3.527778,3.52778 h 70.555695 c 1.94828,0 3.52778,-1.5795 3.52778,-3.52778 0,-5.84482 -4.73851,-10.58333 -10.58333,-10.58333 h -3.52731 v -12.34722 c 0,-4.87069 -3.94876,-8.819446 -8.81945,-8.819446 h -3.473681 c -2.904537,-4.338225 -4.767204,-9.429514 -5.23146,-14.924381 4.81283,-1.111485 9.205621,-3.315641 12.901791,-6.334007 14.62381,-1.108193 26.47338,-12.116459 28.87415,-26.339048 0.31515,-1.865536 -0.89793,-3.647393 -2.74884,-4.038741 -4.76109,-1.006592 -9.57815,-1.860691 -14.44602,-2.557074 V 40.55231 c 0,-1.779552 -1.32503,-3.280457 -3.09127,-3.500638 -9.38953,-1.17094 -18.954514,-1.773907 -28.658725,-1.773907 -9.703882,0 -19.268676,0.602967 -28.658585,1.773907 -1.765865,0.220181 -3.091274,1.721086 -3.091274,3.500638 z m 0,12.364343 c 0,5.626477 1.465156,10.912358 4.03225,15.495129 -6.383491,-2.857688 -11.334139,-8.346675 -13.46835,-15.086518 3.121707,-0.60499 6.267638,-1.142482 9.4361,-1.610971 z m 63.499854,0 v -1.20236 c 3.16889,0.468489 6.31473,1.005981 9.4361,1.611018 -2.13407,6.739796 -7.08471,12.228783 -13.46811,15.086471 2.56728,-4.582771 4.03201,-9.868652 4.03201,-15.495129 z"
     fill="#0f172a"
     id="path1-0"
     style="fill:#ffffff;fill-opacity:1;stroke-width:0.264583" /></svg>
